HIERARCHY
ROOT Hips
{
 OFFSET 0.000000 0.000000 0.000000
 CHANNELS 6 Xposition Yposition Zposition Yrotation Xrotation Zrotation
 JOINT Chest
 {
  OFFSET 0.000000 9.876134 0.000104
  CHANNELS 3 Yrotation Xrotation Zrotation
  JOINT Chest2
  {
   OFFSET 0.000000 10.876135 -0.000189
   CHANNELS 3 Yrotation Xrotation Zrotation
   JOINT Chest3
   {
    OFFSET 0.000000 9.827064 0.000000
    CHANNELS 3 Yrotation Xrotation Zrotation
    JOINT Chest4
    {
     OFFSET 0.000000 9.827064 0.000000
     CHANNELS 3 Yrotation Xrotation Zrotation
     JOINT Neck
     {
      OFFSET 0.000000 13.837563 0.000000
      CHANNELS 3 Yrotation Xrotation Zrotation
      JOINT Head
      {
       OFFSET 0.000000 9.147058 -0.000450
       CHANNELS 3 Yrotation Xrotation Zrotation
       End Site
       {
        OFFSET 0.000000 17.513052 -0.000235
       }
      }
     }
     JOINT RightCollar
     {
      OFFSET -3.007720 7.720840 0.000000
      CHANNELS 3 Yrotation Xrotation Zrotation
      JOINT RightShoulder
      {
       OFFSET -14.032537 0.000000 0.000000
       CHANNELS 3 Yrotation Xrotation Zrotation
       JOINT RightElbow
       {
        OFFSET -30.066914 0.000000 0.000000
        CHANNELS 3 Yrotation Xrotation Zrotation
        JOINT RightWrist
        {
         OFFSET -24.575722 0.000000 0.000000
         CHANNELS 3 Yrotation Xrotation Zrotation
         JOINT Prop1
         {
          OFFSET -3.508164 -1.002333 -2.004665
          CHANNELS 3 Yrotation Xrotation Zrotation
          End Site
          {
           OFFSET -75.170611 -33.091209 23.052278
          }
         }
         End Site
         {
          OFFSET -18.342688 0.000000 0.000000
         }
        }
       }
      }
     }
     JOINT LeftCollar
     {
      OFFSET 3.007720 7.720840 0.000000
      CHANNELS 3 Yrotation Xrotation Zrotation
      JOINT LeftShoulder
      {
       OFFSET 14.032537 0.000000 0.000000
       CHANNELS 3 Yrotation Xrotation Zrotation
       JOINT LeftElbow
       {
        OFFSET 30.066914 0.000000 0.000000
        CHANNELS 3 Yrotation Xrotation Zrotation
        JOINT LeftWrist
        {
         OFFSET 24.575722 0.000000 0.000000
         CHANNELS 3 Yrotation Xrotation Zrotation
         End Site
         {
          OFFSET 18.342688 0.000000 0.000000
         }
        }
       }
      }
     }
    }
   }
  }
 }
 JOINT RightHip
 {
  OFFSET -8.019673 -0.000511 -0.000052
  CHANNELS 3 Yrotation Xrotation Zrotation
  JOINT RightKnee
  {
   OFFSET 0.000000 -41.754946 0.000049
   CHANNELS 3 Yrotation Xrotation Zrotation
   JOINT RightAnkle
   {
    OFFSET 0.000000 -40.737371 0.000083
    CHANNELS 3 Yrotation Xrotation Zrotation
    JOINT RightToe
    {
     OFFSET 0.000000 -6.498128 14.692921
     CHANNELS 3 Yrotation Xrotation Zrotation
     End Site
     {
      OFFSET 0.000000 -1.503206 6.410308
     }
    }
   }
  }
 }
 JOINT LeftHip
 {
  OFFSET 8.019673 -0.000511 -0.000052
  CHANNELS 3 Yrotation Xrotation Zrotation
  JOINT LeftKnee
  {
   OFFSET 0.000000 -41.754946 0.000049
   CHANNELS 3 Yrotation Xrotation Zrotation
   JOINT LeftAnkle
   {
    OFFSET 0.000000 -40.737371 0.000083
    CHANNELS 3 Yrotation Xrotation Zrotation
    JOINT LeftToe
    {
     OFFSET 0.000000 -6.498128 14.692921
     CHANNELS 3 Yrotation Xrotation Zrotation
     End Site
     {
      OFFSET 0.000000 -1.503206 6.410308
     }
    }
   }
  }
 }
}
MOTION
Frames: 15
Frame Time: 0.016667
35.151172 76.245409 -65.705621 -150.463229 -5.297792 5.741286 -7.237875 8.730312 -2.377855 -3.229028 3.902357 -0.861180 -3.229028 3.902357 -0.861180 -2.415334 2.931419 -0.625009 -12.402643 12.157939 4.725625 -25.497908 -11.464574 13.989994 15.380148 1.558013 3.656600 -35.014200 -45.371555 88.615478 34.822678 -4.634280 -4.509361 -9.347339 10.193561 -10.509780 -7.136143 14.915433 -87.739794 17.543472 -6.928150 -15.249088 11.133965 9.414272 -62.974080 -39.562984 6.049764 5.672045 -1.089135 -1.684368 5.663372 -7.387998 -45.746842 -21.879707 -47.447329 52.549511 -38.197999 16.901366 -6.975433 -2.927871 0.040195 0.049839 0.231185 -28.129333 4.506579 26.793035 29.789795 55.177560 -19.758846 19.376728 -20.579009 -15.284358 -0.095684 -2.904969 -4.851655
35.228446 76.275065 -65.415496 -150.527684 -4.743415 5.815159 -7.156365 8.611570 -2.284482 -3.215050 3.812294 -0.865546 -3.215050 3.812294 -0.865546 -2.404997 2.863872 -0.628859 -12.420596 12.061419 4.734466 -25.558399 -11.633323 14.038874 15.331746 1.579524 3.639321 -35.095528 -45.338519 88.826079 35.034957 -4.489870 -4.525667 -9.265164 10.230961 -10.512831 -7.099350 14.880103 -87.631663 17.464242 -6.931622 -15.256595 11.105344 9.427367 -62.886312 -39.397041 5.975041 5.697668 -1.089202 -1.691349 5.650954 -7.402481 -46.310889 -21.817280 -47.341093 52.210611 -38.023527 17.213652 -6.675500 -2.864795 0.050384 -0.056349 0.083445 -27.121083 3.593924 27.410979 29.148192 55.384417 -20.040061 18.670143 -20.619422 -15.277766 -0.005998 -2.386381 -3.533477
35.246498 76.294956 -65.150308 -150.193156 -3.907195 6.035855 -7.383730 8.366585 -2.283451 -3.230028 3.644141 -0.872073 -3.230028 3.644141 -0.872073 -2.416504 2.737809 -0.634572 -12.443611 11.988315 4.732577 -25.618744 -11.761118 14.063434 15.342629 1.731825 3.631221 -35.181996 -45.408242 89.031993 35.218659 -4.334463 -4.585159 -9.158127 10.195323 -10.597645 -7.051994 14.818900 -87.660801 17.392893 -6.895194 -15.268606 11.041025 9.411644 -62.830300 -39.239209 5.919769 5.824585 -1.056781 -1.692270 5.600123 -7.222365 -47.088863 -22.202010 -47.404067 51.793741 -37.783151 17.470869 -6.499825 -2.648623 -0.050967 0.069648 -0.116581 -26.259475 2.253288 28.202065 28.327456 55.727006 -20.587847 17.872223 -20.739065 -15.462817 -0.059758 -2.448000 -3.938349
35.300576 76.334158 -64.764947 -149.858397 -2.732627 6.424627 -7.496896 7.833224 -2.331948 -3.284448 3.438548 -0.889383 -3.284448 3.438548 -0.889383 -2.457593 2.583784 -0.648360 -12.458051 11.950257 4.705459 -25.644778 -11.833987 14.028321 15.445865 2.042427 3.645534 -35.188668 -45.566035 89.167685 35.414002 -4.262601 -4.752302 -9.048959 10.137818 -10.675413 -6.979602 14.753481 -87.717015 17.363969 -6.818534 -15.293850 11.069529 9.311221 -62.805698 -39.091021 5.977883 5.937631 -1.060435 -1.699769 5.558452 -6.347762 -48.170278 -23.118018 -47.497952 51.524521 -37.405192 17.330326 -6.146710 -2.391515 -0.010883 0.076054 -0.247626 -25.880829 1.091528 29.022342 28.072509 55.756960 -21.346724 16.849183 -20.939864 -16.170682 0.002525 -1.794732 -2.065928
35.343898 76.397421 -64.408148 -149.479809 -2.099458 6.887465 -7.729046 7.530516 -2.453945 -3.351541 3.304929 -0.932456 -3.351541 3.304929 -0.932456 -2.507918 2.483904 -0.681030 -12.445830 11.958591 4.654568 -25.600193 -11.835260 13.926444 15.724940 2.677597 3.729162 -35.093424 -46.011288 89.305757 35.532748 -4.235685 -5.141872 -8.888312 10.064659 -10.707418 -6.918306 14.672197 -87.682700 17.388706 -6.627473 -15.340440 11.204118 9.158776 -62.816478 -39.037245 6.096057 5.998899 -1.101745 -1.711832 5.578199 -5.020770 -48.682498 -24.512983 -47.724618 51.376955 -37.022471 17.244579 -5.717573 -2.093963 0.034203 -0.002664 -0.382623 -25.685980 0.709283 29.492853 26.727177 55.009378 -22.941005 16.275847 -20.893779 -17.502318 0.064496 -1.308661 -0.106090
35.376183 76.472371 -64.026746 -148.855437 -2.027845 7.612648 -8.083700 7.344692 -2.771233 -3.500851 3.283062 -1.043912 -3.500851 3.283062 -1.043912 -2.619315 2.468379 -0.763925 -12.411949 12.024986 4.629850 -25.510872 -11.729223 13.849974 16.041843 3.418119 3.865600 -34.764117 -46.598017 89.294918 35.527556 -4.415518 -5.652529 -8.710425 10.017743 -10.714714 -6.857093 14.632985 -87.625090 17.390607 -6.338206 -15.344038 11.275318 9.029476 -62.893872 -39.131359 6.113805 6.130969 -1.126784 -1.739962 5.679463 -3.430849 -48.699182 -26.512255 -48.113067 51.303628 -36.830410 16.723243 -5.082220 -1.657402 0.147100 -0.294318 -0.497285 -25.865064 0.606948 29.541342 23.720775 53.912391 -25.418292 16.241830 -20.425538 -19.056887 -0.007434 -1.343780 1.469477
35.413249 76.504966 -63.590876 -147.891131 -1.857962 8.417218 -8.545110 7.096567 -3.128071 -3.696298 3.241289 -1.197329 -3.696298 3.241289 -1.197329 -2.765141 2.438322 -0.878173 -12.392194 12.131926 4.687110 -25.469854 -11.524496 13.921177 16.137277 3.864586 3.969737 -34.392727 -46.873547 89.198801 35.537397 -4.764213 -6.024168 -8.552393 10.083109 -10.788282 -6.792840 14.648133 -87.595753 17.307688 -6.105649 -15.245735 11.226220 8.995595 -62.929343 -39.390147 6.062008 6.316019 -1.139357 -1.816736 5.795650 -2.038412 -48.901003 -28.637991 -48.581783 51.213660 -36.875599 16.374366 -4.511790 -1.147413 0.244650 -0.506638 -0.561819 -27.089787 0.361447 29.545218 20.833886 52.935079 -27.377862 15.624664 -19.788118 -20.860423 -0.166618 -1.815870 2.660193
35.426462 76.414228 -63.037638 -146.768361 -1.143781 9.137635 -9.037099 6.669071 -3.477960 -3.862789 3.080262 -1.315872 -3.862789 3.080262 -1.315872 -2.889772 2.318633 -0.967226 -12.405450 12.254323 4.810751 -25.512297 -11.266260 14.124205 16.062105 3.900556 4.038243 -34.370992 -46.650931 89.321966 35.699555 -4.861659 -6.201685 -8.433840 10.163458 -10.974758 -6.758069 14.687920 -87.614824 17.185940 -5.963822 -15.088705 11.027189 8.958994 -62.893510 -39.696332 6.045169 6.573989 -1.149623 -1.904613 5.768412 -0.920863 -49.769234 -30.524937 -49.152333 51.002180 -37.274539 16.307362 -4.091980 -0.614673 0.212799 -0.519077 -0.540958 -29.164085 -0.313923 29.673978 18.287759 51.909599 -28.572739 14.663473 -19.300442 -22.934469 -0.301601 -2.310920 3.549019
35.393388 76.208609 -62.465554 -145.774193 -0.524021 9.659696 -9.396778 6.409390 -3.775115 -4.002442 2.918036 -1.389350 -4.002442 2.918036 -1.389350 -2.994562 2.197748 -1.022714 -12.453862 12.352845 4.939975 -25.628145 -11.041281 14.356429 16.076089 3.800870 4.169272 -34.597725 -46.308388 89.564039 35.951436 -4.778513 -6.362555 -8.399834 10.240575 -11.240300 -6.711072 14.697391 -87.767875 17.142350 -5.943580 -14.963989 10.826659 8.842631 -62.813165 -39.960027 6.117718 6.738131 -1.191268 -1.894933 5.665859 -0.034754 -50.583629 -31.998077 -49.674387 50.718400 -37.815788 16.236706 -3.866274 -0.201755 0.200649 -0.317210 -0.379202 -30.364447 -0.904794 29.393591 14.196324 50.045428 -29.570279 14.476964 -19.372498 -24.537795 -0.156074 -2.418817 3.608281
35.285245 75.967953 -61.893931 -144.999058 -0.155927 10.000616 -9.698022 6.177608 -3.987557 -4.095886 2.824172 -1.425501 -4.095886 2.824172 -1.425501 -3.064721 2.127807 -1.050024 -12.514924 12.433699 4.980935 -25.738368 -10.868684 14.433123 16.196363 4.097136 4.244576 -34.848621 -46.293339 89.933409 36.135283 -4.583855 -6.632743 -8.386731 10.144092 -11.383054 -6.666091 14.679238 -87.893818 17.196706 -5.838709 -14.930142 10.678634 8.528683 -62.900071 -40.092221 6.306078 6.858309 -1.236348 -1.852636 5.697343 0.662896 -51.155586 -33.091971 -49.938635 50.407909 -38.240602 16.004239 -3.561466 0.075581 0.237771 -0.126311 -0.123721 -30.755363 -1.126541 28.615392 9.390670 47.738051 -30.239946 16.809091 -19.715876 -24.204038 0.215245 -1.895353 1.380618
35.176387 75.717044 -61.348486 -144.349538 0.468657 9.947239 -9.945329 5.858702 -3.784720 -4.169016 2.677331 -1.404017 -4.169016 2.677331 -1.404017 -3.120058 2.017698 -1.034602 -12.546868 12.494454 4.917926 -25.759856 -10.767452 14.311038 16.480524 4.997116 4.263756 -35.198216 -46.932387 90.420204 36.199549 -4.590621 -6.894118 -8.392972 10.066224 -11.361917 -6.663288 14.702923 -87.860355 17.383328 -5.740066 -14.962774 10.729555 8.280275 -63.113361 -40.267545 6.579680 6.844737 -1.274722 -1.906697 5.978196 0.875720 -51.933436 -33.456214 -49.924947 50.124052 -38.419799 15.831232 -3.344635 0.211563 0.258384 0.143902 0.141131 -31.930185 -0.961736 28.193038 6.051604 45.924539 -30.651865 21.573535 -19.561138 -21.014886 0.174711 -1.160087 -3.381769
35.104876 75.424139 -60.808649 -143.756928 1.310254 9.439172 -10.186502 5.539218 -3.086400 -4.226741 2.490212 -1.341191 -4.226741 2.490212 -1.341191 -3.164107 1.877050 -0.988558 -12.546335 12.519981 4.822831 -25.717061 -10.746567 14.127015 16.885336 5.979230 4.419533 -35.372012 -48.008490 90.493608 36.124677 -4.944257 -7.044167 -8.399018 10.129882 -11.306533 -6.727618 14.834217 -87.737031 17.577068 -5.719964 -15.028180 10.899594 8.242720 -63.374074 -40.519842 6.768652 6.790551 -1.297302 -2.016285 6.418325 0.514158 -52.935036 -33.121214 -49.817714 49.936304 -38.423082 15.871986 -3.115556 0.244101 0.143930 0.379570 0.330147 -33.557609 0.064902 28.581267 9.366263 45.695544 -26.763466 23.928562 -17.836541 -16.601772 0.057915 -0.467789 -8.946392
34.989388 75.124202 -60.267581 -143.396752 1.691288 9.045166 -10.451795 5.305031 -2.547982 -4.233327 2.434319 -1.299974 -4.233327 2.434319 -1.299974 -3.169354 1.834856 -0.958017 -12.526089 12.533275 4.742771 -25.645913 -10.748504 13.967159 17.027146 6.082725 4.557299 -34.864889 -48.554192 89.783400 35.930236 -5.380059 -7.056262 -8.381052 10.283712 -11.336626 -6.867767 14.998991 -87.758642 17.695788 -5.694628 -15.069471 10.845943 8.341029 -63.755840 -40.631432 6.865919 7.032047 -1.310853 -2.167547 6.716981 0.813043 -53.333860 -33.386893 -50.123610 49.754634 -38.439725 16.012237 -2.818723 0.185611 0.071472 0.564770 0.486206 -33.978630 2.144026 28.772626 19.959925 45.028874 -17.698921 21.312964 -15.120948 -11.442003 -0.447284 0.779168 -13.505556
34.739041 74.856961 -59.779473 -144.161384 0.894696 8.953875 -9.923466 5.726647 -2.537741 -4.218291 2.584337 -1.298244 -4.218291 2.584337 -1.298244 -3.157706 1.947332 -0.955723 -12.478319 12.553029 4.683475 -25.529459 -10.739621 13.834355 16.870083 5.270304 4.516885 -34.059154 -48.258303 88.770069 35.731930 -5.500856 -6.938644 -8.445839 10.433234 -11.410912 -6.960156 15.066915 -87.849848 17.764383 -5.650191 -15.116920 10.574227 8.513428 -64.129385 -40.587791 6.828302 7.440354 -1.311464 -2.223514 6.763952 2.591374 -52.377190 -34.399424 -50.713788 49.506864 -38.493814 16.424930 -2.220761 0.011476 0.130748 0.506456 0.651533 -33.303205 5.129459 28.261899 30.831421 43.222126 -9.589714 17.710000 -11.839594 -7.315863 -1.404446 1.110512 -15.446979
34.444119 74.622110 -59.206586 -144.695053 -0.367162 8.968260 -9.637128 6.206897 -2.677832 -4.241549 2.836212 -1.303841 -4.241549 2.836212 -1.303841 -3.174474 2.136339 -0.958037 -12.407707 12.598205 4.626051 -25.364953 -10.689231 13.690176 16.945423 5.038034 4.460945 -33.913343 -48.334136 88.417344 35.495215 -5.009335 -6.941967 -8.522063 10.217299 -11.292445 -6.972572 14.979208 -87.834815 17.830474 -5.574240 -15.218335 10.288946 8.688027 -64.388547 -40.423040 6.857904 7.790913 -1.311762 -2.136684 6.628166 4.387680 -50.908453 -35.724846 -51.547194 49.219598 -38.510636 16.641861 -1.379136 -0.223562 0.319774 0.307762 0.816402 -32.247404 8.065584 27.642260 38.132832 40.308521 -4.885245 14.191989 -9.362885 -5.308764 -1.866036 1.321864 -14.123149
